{"title":"Nicki Minaj - Pound The Alarm (Explicit) 720p HD {ECS}","uid":7495430,"size":68605071,"categoryP":"video","categoryS":"music_videos","magnet":"?xt=urn:btih:6b86f29affd3008c554cdebd5630319b4eba776e&amp;dn=Nicki+Minaj+-+Pound+The+Alarm+%28Explicit%29+720p+HD+%7BECS%7D&amp;tr=udp%3A%2F%2Ftracker.openbittorrent.com%3A80&amp;tr=udp%3A%2F%2Fopen.demonii.com%3A1337&amp;tr=udp%3A%2F%2Ftracker.coppersurfer.tk%3A6969&amp;tr=udp%3A%2F%2Fexodus.desync.com%3A6969","seeders":1,"leechers":0,"uploader":"sameer_ecs","files":4,"time":1343863263,"description":"General\nComplete name : Nicki Minaj - Pound The Alarm (Explicit) 720p HD {ECS}.mp4\nFormat : MPEG-4\nFormat profile : Base Media\nCodec ID : isom\nFile size : 65.1 MiB\nDuration : 4mn 13s\nOverall bit rate mode : Variable\nOverall bit rate : 2 156 Kbps\nEncoded date : UTC 2012-08-01 19:01:59\nTagged date : UTC 2012-08-01 19:01:59\n\nVideo\nID : 1\nFormat : AVC\nFormat/Info : Advanced Video Codec\nFormat profile : &lt;a class=&quot;__cf_email__&quot; href=&quot;/cdn-cgi/l/email-protection&quot; data-cfemail=&quot;ade5c4cac5ede199839c&quot;&gt;[email&amp;#160;protected]&lt;/a&gt;&lt;script cf-hash='f9e31' type=&quot;text/javascript&quot;&gt;\n/* &lt;![CDATA[ */!function(){try{var t=&quot;currentScript&quot;in document?document.currentScript:function(){for(var t=document.getElementsByTagName(&quot;script&quot;),e=t.length;e--;)if(t[e].getAttribute(&quot;cf-hash&quot;))return t[e]}();if(t&amp;&amp;t.previousSibling){var e,r,n,i,c=t.previousSibling,a=c.getAttribute(&quot;data-cfemail&quot;);if(a){for(e=&quot;&quot;,r=parseInt(a.substr(0,2),16),n=2;a.length-n;n+=2)i=parseInt(a.substr(n,2),16)^r,e+=String.fromCharCode(i);e=document.createTextNode(e),c.parentNode.replaceChild(e,c)}}}catch(u){}}();/* ]]&gt; */&lt;/script&gt;\nFormat settings, CABAC : Yes\nFormat settings, ReFrames : 3 frames\nCodec ID : avc1\nCodec ID/Info : Advanced Video Coding\nDuration : 4mn 13s\nBit rate mode : Variable\nBit rate : 2 020 Kbps\nMaximum bit rate : 40.0 Mbps\nWidth : 1 280 pixels\nHeight : 720 pixels\nDisplay aspect ratio : 16:9\nFrame rate mode : Constant\nFrame rate : 24.000 fps\nColor space : YUV\nChroma subsampling : 4:2:0\nBit depth : 8 bits\nScan type : Progressive\nBits/(Pixel*Frame) : 0.091\nStream size : 61.2 MiB (94%)\nWriting library : x264 core 125 r2200 999b753\n\nAudio\nID : 2\nFormat : AC-3\nFormat/Info : Audio Coding 3\nMode extension : CM (complete main)\nFormat settings, Endianness : Big\nCodec ID : ac-3\nDuration : 4mn 13s\nBit rate mode : Constant\nBit rate : 128 Kbps\nChannel(s) : 2 channels\nChannel positions : Front: L R\nSampling rate : 44.1 KHz\nBit depth : 16 bits\nCompression mode : Lossy\nStream size : 3.87 MiB (6%)\n\n &lt;a href=&quot;\nhttp://i1271.photobucket.com/albums/jj629/sameer_ecs/NickiMinaj-PoundTheAlarmExplicit720pHDECSmp4_thumbs_20120802_012821.jpg&quot; rel=&quot;nofollow&quot; target=&quot;_NEW&quot;&gt;\nhttp://i1271.photobucket.com/albums/jj629/sameer_ecs/NickiMinaj-PoundTheAlarmExplicit720pHDECSmp4_thumbs_20120802_012821.jpg&lt;/a&gt;","torrent":{"xt":"urn:btih:6b86f29affd3008c554cdebd5630319b4eba776e","amp;dn":"Nicki+Minaj+-+Pound+The+Alarm+%28Explicit%29+720p+HD+%7BECS%7D","amp;tr":["udp%3A%2F%2Ftracker.openbittorrent.com%3A80","udp%3A%2F%2Fopen.demonii.com%3A1337","udp%3A%2F%2Ftracker.coppersurfer.tk%3A6969","udp%3A%2F%2Fexodus.desync.com%3A6969"],"infoHash":"6b86f29affd3008c554cdebd5630319b4eba776e","infoHashBuffer":{"type":"Buffer","data":[107,134,242,154,255,211,0,140,85,76,222,189,86,48,49,155,78,186,119,110]},"announce":[],"urlList":[]}}